<?xml version="1.0" encoding="utf-8" standalone="no"?>
<!DOCTYPE svg PUBLIC "-//W3C//DTD SVG 1.1//EN"
  "http://www.w3.org/Graphics/SVG/1.1/DTD/svg11.dtd">
<svg xmlns:xlink="http://www.w3.org/1999/xlink" width="720pt" height="432pt" viewBox="0 0 720 432" xmlns="http://www.w3.org/2000/svg" version="1.1">
 <metadata>
  <rdf:RDF xmlns:dc="http://purl.org/dc/elements/1.1/" xmlns:cc="http://creativecommons.org/ns#" xmlns:rdf="http://www.w3.org/1999/02/22-rdf-syntax-ns#">
   <cc:Work>
    <dc:type rdf:resource="http://purl.org/dc/dcmitype/StillImage"/>
    <dc:date>2026-03-02T00:30:54.364792</dc:date>
    <dc:format>image/svg+xml</dc:format>
    <dc:creator>
     <cc:Agent>
      <dc:title>Matplotlib v3.10.8, https://matplotlib.org/</dc:title>
     </cc:Agent>
    </dc:creator>
   </cc:Work>
  </rdf:RDF>
 </metadata>
 <defs>
  <style type="text/css">*{stroke-linejoin: round; stroke-linecap: butt}</style>
 </defs>
 <g id="figure_1">
  <g id="patch_1">
   <path d="M 0 432 
L 720 432 
L 720 0 
L 0 0 
z
" style="fill: #ffffff"/>
  </g>
  <g id="axes_1">
   <g id="patch_2">
    <path d="M 90 384.48 
L 648 384.48 
L 648 51.84 
L 90 51.84 
z
" style="fill: #ffffff"/>
   </g>
   <g id="matplotlib.axis_1">
    <g id="text_1">
     <!-- Sample index -->
     <g transform="translate(334.982031 396.078438) scale(0.1 -0.1)">
      <defs>
       <path id="DejaVuSans-53" d="M 3425 4513 
L 3425 3897 
Q 3066 4069 2747 4153 
Q 2428 4238 2131 4238 
Q 1616 4238 1336 4038 
Q 1056 3838 1056 3469 
Q 1056 3159 1242 3001 
Q 1428 2844 1947 2747 
L 2328 2669 
Q 3034 2534 3370 2195 
Q 3706 1856 3706 1288 
Q 3706 609 3251 259 
Q 2797 -91 1919 -91 
Q 1588 -91 1214 -16 
Q 841 59 441 206 
L 441 856 
Q 825 641 1194 531 
Q 1563 422 1919 422 
Q 2459 422 2753 634 
Q 3047 847 3047 1241 
Q 3047 1584 2836 1778 
Q 2625 1972 2144 2069 
L 1759 2144 
Q 1053 2284 737 2584 
Q 422 2884 422 3419 
Q 422 4038 858 4394 
Q 1294 4750 2059 4750 
Q 2388 4750 2728 4690 
Q 3069 4631 3425 4513 
z
" transform="scale(0.015625)"/>
       <path id="DejaVuSans-61" d="M 2194 1759 
Q 1497 1759 1228 1600 
Q 959 1441 959 1056 
Q 959 750 1161 570 
Q 1363 391 1709 391 
Q 2188 391 2477 730 
Q 2766 1069 2766 1631 
L 2766 1759 
L 2194 1759 
z
M 3341 1997 
L 3341 0 
L 2766 0 
L 2766 531 
Q 2569 213 2275 61 
Q 1981 -91 1556 -91 
Q 1019 -91 701 211 
Q 384 513 384 1019 
Q 384 1609 779 1909 
Q 1175 2209 1959 2209 
L 2766 2209 
L 2766 2266 
Q 2766 2663 2505 2880 
Q 2244 3097 1772 3097 
Q 1472 3097 1187 3025 
Q 903 2953 641 2809 
L 641 3341 
Q 956 3463 1253 3523 
Q 1550 3584 1831 3584 
Q 2591 3584 2966 3190 
Q 3341 2797 3341 1997 
z
" transform="scale(0.015625)"/>
       <path id="DejaVuSans-6d" d="M 3328 2828 
Q 3544 3216 3844 3400 
Q 4144 3584 4550 3584 
Q 5097 3584 5394 3201 
Q 5691 2819 5691 2113 
L 5691 0 
L 5113 0 
L 5113 2094 
Q 5113 2597 4934 2840 
Q 4756 3084 4391 3084 
Q 3944 3084 3684 2787 
Q 3425 2491 3425 1978 
L 3425 0 
L 2847 0 
L 2847 2094 
Q 2847 2600 2669 2842 
Q 2491 3084 2119 3084 
Q 1678 3084 1418 2786 
Q 1159 2488 1159 1978 
L 1159 0 
L 581 0 
L 581 3500 
L 1159 3500 
L 1159 2956 
Q 1356 3278 1631 3431 
Q 1906 3584 2284 3584 
Q 2666 3584 2933 3390 
Q 3200 3197 3328 2828 
z
" transform="scale(0.015625)"/>
       <path id="DejaVuSans-70" d="M 1159 525 
L 1159 -1331 
L 581 -1331 
L 581 3500 
L 1159 3500 
L 1159 2969 
Q 1341 3281 1617 3432 
Q 1894 3584 2278 3584 
Q 2916 3584 3314 3078 
Q 3713 2572 3713 1747 
Q 3713 922 3314 415 
Q 2916 -91 2278 -91 
Q 1894 -91 1617 61 
Q 1341 213 1159 525 
z
M 3116 1747 
Q 3116 2381 2855 2742 
Q 2594 3103 2138 3103 
Q 1681 3103 1420 2742 
Q 1159 2381 1159 1747 
Q 1159 1113 1420 752 
Q 1681 391 2138 391 
Q 2594 391 2855 752 
Q 3116 1113 3116 1747 
z
" transform="scale(0.015625)"/>
       <path id="DejaVuSans-6c" d="M 603 4863 
L 1178 4863 
L 1178 0 
L 603 0 
L 603 4863 
z
" transform="scale(0.015625)"/>
       <path id="DejaVuSans-65" d="M 3597 1894 
L 3597 1613 
L 953 1613 
Q 991 1019 1311 708 
Q 1631 397 2203 397 
Q 2534 397 2845 478 
Q 3156 559 3463 722 
L 3463 178 
Q 3153 47 2828 -22 
Q 2503 -91 2169 -91 
Q 1331 -91 842 396 
Q 353 884 353 1716 
Q 353 2575 817 3079 
Q 1281 3584 2069 3584 
Q 2775 3584 3186 3129 
Q 3597 2675 3597 1894 
z
M 3022 2063 
Q 3016 2534 2758 2815 
Q 2500 3097 2075 3097 
Q 1594 3097 1305 2825 
Q 1016 2553 972 2059 
L 3022 2063 
z
" transform="scale(0.015625)"/>
       <path id="DejaVuSans-20" transform="scale(0.015625)"/>
       <path id="DejaVuSans-69" d="M 603 3500 
L 1178 3500 
L 1178 0 
L 603 0 
L 603 3500 
z
M 603 4863 
L 1178 4863 
L 1178 4134 
L 603 4134 
L 603 4863 
z
" transform="scale(0.015625)"/>
       <path id="DejaVuSans-6e" d="M 3513 2113 
L 3513 0 
L 2938 0 
L 2938 2094 
Q 2938 2591 2744 2837 
Q 2550 3084 2163 3084 
Q 1697 3084 1428 2787 
Q 1159 2491 1159 1978 
L 1159 0 
L 581 0 
L 581 3500 
L 1159 3500 
L 1159 2956 
Q 1366 3272 1645 3428 
Q 1925 3584 2291 3584 
Q 2894 3584 3203 3211 
Q 3513 2838 3513 2113 
z
" transform="scale(0.015625)"/>
       <path id="DejaVuSans-64" d="M 2906 2969 
L 2906 4863 
L 3481 4863 
L 3481 0 
L 2906 0 
L 2906 525 
Q 2725 213 2448 61 
Q 2172 -91 1784 -91 
Q 1150 -91 751 415 
Q 353 922 353 1747 
Q 353 2572 751 3078 
Q 1150 3584 1784 3584 
Q 2172 3584 2448 3432 
Q 2725 3281 2906 2969 
z
M 947 1747 
Q 947 1113 1208 752 
Q 1469 391 1925 391 
Q 2381 391 2643 752 
Q 2906 1113 2906 1747 
Q 2906 2381 2643 2742 
Q 2381 3103 1925 3103 
Q 1469 3103 1208 2742 
Q 947 2381 947 1747 
z
" transform="scale(0.015625)"/>
       <path id="DejaVuSans-78" d="M 3513 3500 
L 2247 1797 
L 3578 0 
L 2900 0 
L 1881 1375 
L 863 0 
L 184 0 
L 1544 1831 
L 300 3500 
L 978 3500 
L 1906 2253 
L 2834 3500 
L 3513 3500 
z
" transform="scale(0.015625)"/>
      </defs>
      <use xlink:href="#DejaVuSans-53"/>
      <use xlink:href="#DejaVuSans-61" transform="translate(63.476562 0)"/>
      <use xlink:href="#DejaVuSans-6d" transform="translate(124.755859 0)"/>
      <use xlink:href="#DejaVuSans-70" transform="translate(222.167969 0)"/>
      <use xlink:href="#DejaVuSans-6c" transform="translate(285.644531 0)"/>
      <use xlink:href="#DejaVuSans-65" transform="translate(313.427734 0)"/>
      <use xlink:href="#DejaVuSans-20" transform="translate(374.951172 0)"/>
      <use xlink:href="#DejaVuSans-69" transform="translate(406.738281 0)"/>
      <use xlink:href="#DejaVuSans-6e" transform="translate(434.521484 0)"/>
      <use xlink:href="#DejaVuSans-64" transform="translate(497.900391 0)"/>
      <use xlink:href="#DejaVuSans-65" transform="translate(561.376953 0)"/>
      <use xlink:href="#DejaVuSans-78" transform="translate(621.150391 0)"/>
     </g>
    </g>
   </g>
   <g id="matplotlib.axis_2">
    <g id="ytick_1">
     <g id="line2d_1">
      <defs>
       <path id="mbc97327deb" d="M 0 0 
L -3.5 0 
" style="stroke: #000000; stroke-width: 0.8"/>
      </defs>
      <g>
       <use xlink:href="#mbc97327deb" x="90" y="384.48" style="stroke: #000000; stroke-width: 0.8"/>
      </g>
     </g>
     <g id="text_2">
      <!-- 0 -->
      <g transform="translate(76.6375 388.279219) scale(0.1 -0.1)">
       <defs>
        <path id="DejaVuSans-30" d="M 2034 4250 
Q 1547 4250 1301 3770 
Q 1056 3291 1056 2328 
Q 1056 1369 1301 889 
Q 1547 409 2034 409 
Q 2525 409 2770 889 
Q 3016 1369 3016 2328 
Q 3016 3291 2770 3770 
Q 2525 4250 2034 4250 
z
M 2034 4750 
Q 2819 4750 3233 4129 
Q 3647 3509 3647 2328 
Q 3647 1150 3233 529 
Q 2819 -91 2034 -91 
Q 1250 -91 836 529 
Q 422 1150 422 2328 
Q 422 3509 836 4129 
Q 1250 4750 2034 4750 
z
" transform="scale(0.015625)"/>
       </defs>
       <use xlink:href="#DejaVuSans-30"/>
      </g>
     </g>
    </g>
    <g id="ytick_2">
     <g id="line2d_2">
      <g>
       <use xlink:href="#mbc97327deb" x="90" y="322.952398" style="stroke: #000000; stroke-width: 0.8"/>
      </g>
     </g>
     <g id="text_3">
      <!-- 2 -->
      <g transform="translate(76.6375 326.751617) scale(0.1 -0.1)">
       <defs>
        <path id="DejaVuSans-32" d="M 1228 531 
L 3431 531 
L 3431 0 
L 469 0 
L 469 531 
Q 828 903 1448 1529 
Q 2069 2156 2228 2338 
Q 2531 2678 2651 2914 
Q 2772 3150 2772 3378 
Q 2772 3750 2511 3984 
Q 2250 4219 1831 4219 
Q 1534 4219 1204 4116 
Q 875 4013 500 3803 
L 500 4441 
Q 881 4594 1212 4672 
Q 1544 4750 1819 4750 
Q 2544 4750 2975 4387 
Q 3406 4025 3406 3419 
Q 3406 3131 3298 2873 
Q 3191 2616 2906 2266 
Q 2828 2175 2409 1742 
Q 1991 1309 1228 531 
z
" transform="scale(0.015625)"/>
       </defs>
       <use xlink:href="#DejaVuSans-32"/>
      </g>
     </g>
    </g>
    <g id="ytick_3">
     <g id="line2d_3">
      <g>
       <use xlink:href="#mbc97327deb" x="90" y="261.424796" style="stroke: #000000; stroke-width: 0.8"/>
      </g>
     </g>
     <g id="text_4">
      <!-- 4 -->
      <g transform="translate(76.6375 265.224015) scale(0.1 -0.1)">
       <defs>
        <path id="DejaVuSans-34" d="M 2419 4116 
L 825 1625 
L 2419 1625 
L 2419 4116 
z
M 2253 4666 
L 3047 4666 
L 3047 1625 
L 3713 1625 
L 3713 1100 
L 3047 1100 
L 3047 0 
L 2419 0 
L 2419 1100 
L 313 1100 
L 313 1709 
L 2253 4666 
z
" transform="scale(0.015625)"/>
       </defs>
       <use xlink:href="#DejaVuSans-34"/>
      </g>
     </g>
    </g>
    <g id="ytick_4">
     <g id="line2d_4">
      <g>
       <use xlink:href="#mbc97327deb" x="90" y="199.897194" style="stroke: #000000; stroke-width: 0.8"/>
      </g>
     </g>
     <g id="text_5">
      <!-- 6 -->
      <g transform="translate(76.6375 203.696413) scale(0.1 -0.1)">
       <defs>
        <path id="DejaVuSans-36" d="M 2113 2584 
Q 1688 2584 1439 2293 
Q 1191 2003 1191 1497 
Q 1191 994 1439 701 
Q 1688 409 2113 409 
Q 2538 409 2786 701 
Q 3034 994 3034 1497 
Q 3034 2003 2786 2293 
Q 2538 2584 2113 2584 
z
M 3366 4563 
L 3366 3988 
Q 3128 4100 2886 4159 
Q 2644 4219 2406 4219 
Q 1781 4219 1451 3797 
Q 1122 3375 1075 2522 
Q 1259 2794 1537 2939 
Q 1816 3084 2150 3084 
Q 2853 3084 3261 2657 
Q 3669 2231 3669 1497 
Q 3669 778 3244 343 
Q 2819 -91 2113 -91 
Q 1303 -91 875 529 
Q 447 1150 447 2328 
Q 447 3434 972 4092 
Q 1497 4750 2381 4750 
Q 2619 4750 2861 4703 
Q 3103 4656 3366 4563 
z
" transform="scale(0.015625)"/>
       </defs>
       <use xlink:href="#DejaVuSans-36"/>
      </g>
     </g>
    </g>
    <g id="ytick_5">
     <g id="line2d_5">
      <g>
       <use xlink:href="#mbc97327deb" x="90" y="138.369592" style="stroke: #000000; stroke-width: 0.8"/>
      </g>
     </g>
     <g id="text_6">
      <!-- 8 -->
      <g transform="translate(76.6375 142.16881) scale(0.1 -0.1)">
       <defs>
        <path id="DejaVuSans-38" d="M 2034 2216 
Q 1584 2216 1326 1975 
Q 1069 1734 1069 1313 
Q 1069 891 1326 650 
Q 1584 409 2034 409 
Q 2484 409 2743 651 
Q 3003 894 3003 1313 
Q 3003 1734 2745 1975 
Q 2488 2216 2034 2216 
z
M 1403 2484 
Q 997 2584 770 2862 
Q 544 3141 544 3541 
Q 544 4100 942 4425 
Q 1341 4750 2034 4750 
Q 2731 4750 3128 4425 
Q 3525 4100 3525 3541 
Q 3525 3141 3298 2862 
Q 3072 2584 2669 2484 
Q 3125 2378 3379 2068 
Q 3634 1759 3634 1313 
Q 3634 634 3220 271 
Q 2806 -91 2034 -91 
Q 1263 -91 848 271 
Q 434 634 434 1313 
Q 434 1759 690 2068 
Q 947 2378 1403 2484 
z
M 1172 3481 
Q 1172 3119 1398 2916 
Q 1625 2713 2034 2713 
Q 2441 2713 2670 2916 
Q 2900 3119 2900 3481 
Q 2900 3844 2670 4047 
Q 2441 4250 2034 4250 
Q 1625 4250 1398 4047 
Q 1172 3844 1172 3481 
z
" transform="scale(0.015625)"/>
       </defs>
       <use xlink:href="#DejaVuSans-38"/>
      </g>
     </g>
    </g>
    <g id="ytick_6">
     <g id="line2d_6">
      <g>
       <use xlink:href="#mbc97327deb" x="90" y="76.84199" style="stroke: #000000; stroke-width: 0.8"/>
      </g>
     </g>
     <g id="text_7">
      <!-- 10 -->
      <g transform="translate(70.275 80.641208) scale(0.1 -0.1)">
       <defs>
        <path id="DejaVuSans-31" d="M 794 531 
L 1825 531 
L 1825 4091 
L 703 3866 
L 703 4441 
L 1819 4666 
L 2450 4666 
L 2450 531 
L 3481 531 
L 3481 0 
L 794 0 
L 794 531 
z
" transform="scale(0.015625)"/>
       </defs>
       <use xlink:href="#DejaVuSans-31"/>
       <use xlink:href="#DejaVuSans-30" transform="translate(63.623047 0)"/>
      </g>
     </g>
    </g>
    <g id="text_8">
     <!-- Distance -->
     <g transform="translate(64.195312 240.0225) rotate(-90) scale(0.1 -0.1)">
      <defs>
       <path id="DejaVuSans-44" d="M 1259 4147 
L 1259 519 
L 2022 519 
Q 2988 519 3436 956 
Q 3884 1394 3884 2338 
Q 3884 3275 3436 3711 
Q 2988 4147 2022 4147 
L 1259 4147 
z
M 628 4666 
L 1925 4666 
Q 3281 4666 3915 4102 
Q 4550 3538 4550 2338 
Q 4550 1131 3912 565 
Q 3275 0 1925 0 
L 628 0 
L 628 4666 
z
" transform="scale(0.015625)"/>
       <path id="DejaVuSans-73" d="M 2834 3397 
L 2834 2853 
Q 2591 2978 2328 3040 
Q 2066 3103 1784 3103 
Q 1356 3103 1142 2972 
Q 928 2841 928 2578 
Q 928 2378 1081 2264 
Q 1234 2150 1697 2047 
L 1894 2003 
Q 2506 1872 2764 1633 
Q 3022 1394 3022 966 
Q 3022 478 2636 193 
Q 2250 -91 1575 -91 
Q 1294 -91 989 -36 
Q 684 19 347 128 
L 347 722 
Q 666 556 975 473 
Q 1284 391 1588 391 
Q 1994 391 2212 530 
Q 2431 669 2431 922 
Q 2431 1156 2273 1281 
Q 2116 1406 1581 1522 
L 1381 1569 
Q 847 1681 609 1914 
Q 372 2147 372 2553 
Q 372 3047 722 3315 
Q 1072 3584 1716 3584 
Q 2034 3584 2315 3537 
Q 2597 3491 2834 3397 
z
" transform="scale(0.015625)"/>
       <path id="DejaVuSans-74" d="M 1172 4494 
L 1172 3500 
L 2356 3500 
L 2356 3053 
L 1172 3053 
L 1172 1153 
Q 1172 725 1289 603 
Q 1406 481 1766 481 
L 2356 481 
L 2356 0 
L 1766 0 
Q 1100 0 847 248 
Q 594 497 594 1153 
L 594 3053 
L 172 3053 
L 172 3500 
L 594 3500 
L 594 4494 
L 1172 4494 
z
" transform="scale(0.015625)"/>
       <path id="DejaVuSans-63" d="M 3122 3366 
L 3122 2828 
Q 2878 2963 2633 3030 
Q 2388 3097 2138 3097 
Q 1578 3097 1268 2742 
Q 959 2388 959 1747 
Q 959 1106 1268 751 
Q 1578 397 2138 397 
Q 2388 397 2633 464 
Q 2878 531 3122 666 
L 3122 134 
Q 2881 22 2623 -34 
Q 2366 -91 2075 -91 
Q 1284 -91 818 406 
Q 353 903 353 1747 
Q 353 2603 823 3093 
Q 1294 3584 2113 3584 
Q 2378 3584 2631 3529 
Q 2884 3475 3122 3366 
z
" transform="scale(0.015625)"/>
      </defs>
      <use xlink:href="#DejaVuSans-44"/>
      <use xlink:href="#DejaVuSans-69" transform="translate(77.001953 0)"/>
      <use xlink:href="#DejaVuSans-73" transform="translate(104.785156 0)"/>
      <use xlink:href="#DejaVuSans-74" transform="translate(156.884766 0)"/>
      <use xlink:href="#DejaVuSans-61" transform="translate(196.09375 0)"/>
      <use xlink:href="#DejaVuSans-6e" transform="translate(257.373047 0)"/>
      <use xlink:href="#DejaVuSans-63" transform="translate(320.751953 0)"/>
      <use xlink:href="#DejaVuSans-65" transform="translate(375.732422 0)"/>
     </g>
    </g>
   </g>
   <g id="LineCollection_1">
    <path d="M 95.58 384.48 
L 95.58 373.210245 
L 99.3 373.210245 
L 99.3 384.48 
" clip-path="url(#p4eebfed31a)" style="fill: none; stroke: #ff7f0e; stroke-width: 1.5"/>
    <path d="M 91.86 384.48 
L 91.86 366.9061 
L 97.44 366.9061 
L 97.44 373.210245 
" clip-path="url(#p4eebfed31a)" style="fill: none; stroke: #ff7f0e; stroke-width: 1.5"/>
    <path d="M 106.74 384.48 
L 106.74 378.922357 
L 110.46 378.922357 
L 110.46 384.48 
" clip-path="url(#p4eebfed31a)" style="fill: none; stroke: #ff7f0e; stroke-width: 1.5"/>
    <path d="M 103.02 384.48 
L 103.02 375.799889 
L 108.6 375.799889 
L 108.6 378.922357 
" clip-path="url(#p4eebfed31a)" style="fill: none; stroke: #ff7f0e; stroke-width: 1.5"/>
    <path d="M 94.65 366.9061 
L 94.65 349.986628 
L 105.81 349.986628 
L 105.81 375.799889 
" clip-path="url(#p4eebfed31a)" style="fill: none; stroke: #ff7f0e; stroke-width: 1.5"/>
    <path d="M 114.18 384.48 
L 114.18 375.745165 
L 117.9 375.745165 
L 117.9 384.48 
" clip-path="url(#p4eebfed31a)" style="fill: none; stroke: #ff7f0e; stroke-width: 1.5"/>
    <path d="M 121.62 384.48 
L 121.62 375.31017 
L 125.34 375.31017 
L 125.34 384.48 
" clip-path="url(#p4eebfed31a)" style="fill: none; stroke: #ff7f0e; stroke-width: 1.5"/>
    <path d="M 129.06 384.48 
L 129.06 371.32535 
L 132.78 371.32535 
L 132.78 384.48 
" clip-path="url(#p4eebfed31a)" style="fill: none; stroke: #ff7f0e; stroke-width: 1.5"/>
    <path d="M 123.48 375.31017 
L 123.48 366.48859 
L 130.92 366.48859 
L 130.92 371.32535 
" clip-path="url(#p4eebfed31a)" style="fill: none; stroke: #ff7f0e; stroke-width: 1.5"/>
    <path d="M 116.04 375.745165 
L 116.04 362.66876 
L 127.2 362.66876 
L 127.2 366.48859 
" clip-path="url(#p4eebfed31a)" style="fill: none; stroke: #ff7f0e; stroke-width: 1.5"/>
    <path d="M 136.5 384.48 
L 136.5 374.635688 
L 140.22 374.635688 
L 140.22 384.48 
" clip-path="url(#p4eebfed31a)" style="fill: none; stroke: #ff7f0e; stroke-width: 1.5"/>
    <path d="M 143.94 384.48 
L 143.94 377.684705 
L 147.66 377.684705 
L 147.66 384.48 
" clip-path="url(#p4eebfed31a)" style="fill: none; stroke: #ff7f0e; stroke-width: 1.5"/>
    <path d="M 145.8 377.684705 
L 145.8 372.786413 
L 151.38 372.786413 
L 151.38 384.48 
" clip-path="url(#p4eebfed31a)" style="fill: none; stroke: #ff7f0e; stroke-width: 1.5"/>
    <path d="M 138.36 374.635688 
L 138.36 368.434757 
L 148.59 368.434757 
L 148.59 372.786413 
" clip-path="url(#p4eebfed31a)" style="fill: none; stroke: #ff7f0e; stroke-width: 1.5"/>
    <path d="M 155.1 384.48 
L 155.1 372.034592 
L 158.82 372.034592 
L 158.82 384.48 
" clip-path="url(#p4eebfed31a)" style="fill: none; stroke: #ff7f0e; stroke-width: 1.5"/>
    <path d="M 143.475 368.434757 
L 143.475 353.879275 
L 156.96 353.879275 
L 156.96 372.034592 
" clip-path="url(#p4eebfed31a)" style="fill: none; stroke: #ff7f0e; stroke-width: 1.5"/>
    <path d="M 121.62 362.66876 
L 121.62 349.026989 
L 150.2175 349.026989 
L 150.2175 353.879275 
" clip-path="url(#p4eebfed31a)" style="fill: none; stroke: #ff7f0e; stroke-width: 1.5"/>
    <path d="M 100.23 349.986628 
L 100.23 337.190003 
L 135.91875 337.190003 
L 135.91875 349.026989 
" clip-path="url(#p4eebfed31a)" style="fill: none; stroke: #ff7f0e; stroke-width: 1.5"/>
   </g>
   <g id="LineCollection_2">
    <path d="M 162.54 384.48 
L 162.54 367.328025 
L 166.26 367.328025 
L 166.26 384.48 
" clip-path="url(#p4eebfed31a)" style="fill: none; stroke: #2ca02c; stroke-width: 1.5"/>
    <path d="M 169.98 384.48 
L 169.98 365.884873 
L 173.7 365.884873 
L 173.7 384.48 
" clip-path="url(#p4eebfed31a)" style="fill: none; stroke: #2ca02c; stroke-width: 1.5"/>
    <path d="M 177.42 384.48 
L 177.42 370.549216 
L 181.14 370.549216 
L 181.14 384.48 
" clip-path="url(#p4eebfed31a)" style="fill: none; stroke: #2ca02c; stroke-width: 1.5"/>
    <path d="M 171.84 365.884873 
L 171.84 357.669849 
L 179.28 357.669849 
L 179.28 370.549216 
" clip-path="url(#p4eebfed31a)" style="fill: none; stroke: #2ca02c; stroke-width: 1.5"/>
    <path d="M 164.4 367.328025 
L 164.4 342.725272 
L 175.56 342.725272 
L 175.56 357.669849 
" clip-path="url(#p4eebfed31a)" style="fill: none; stroke: #2ca02c; stroke-width: 1.5"/>
    <path d="M 188.58 384.48 
L 188.58 374.025006 
L 192.3 374.025006 
L 192.3 384.48 
" clip-path="url(#p4eebfed31a)" style="fill: none; stroke: #2ca02c; stroke-width: 1.5"/>
    <path d="M 190.44 374.025006 
L 190.44 370.933767 
L 196.02 370.933767 
L 196.02 384.48 
" clip-path="url(#p4eebfed31a)" style="fill: none; stroke: #2ca02c; stroke-width: 1.5"/>
    <path d="M 184.86 384.48 
L 184.86 368.295792 
L 193.23 368.295792 
L 193.23 370.933767 
" clip-path="url(#p4eebfed31a)" style="fill: none; stroke: #2ca02c; stroke-width: 1.5"/>
    <path d="M 199.74 384.48 
L 199.74 371.409745 
L 203.46 371.409745 
L 203.46 384.48 
" clip-path="url(#p4eebfed31a)" style="fill: none; stroke: #2ca02c; stroke-width: 1.5"/>
    <path d="M 189.045 368.295792 
L 189.045 359.730024 
L 201.6 359.730024 
L 201.6 371.409745 
" clip-path="url(#p4eebfed31a)" style="fill: none; stroke: #2ca02c; stroke-width: 1.5"/>
    <path d="M 169.98 342.725272 
L 169.98 328.892824 
L 195.3225 328.892824 
L 195.3225 359.730024 
" clip-path="url(#p4eebfed31a)" style="fill: none; stroke: #2ca02c; stroke-width: 1.5"/>
    <path d="M 207.18 384.48 
L 207.18 375.114044 
L 210.9 375.114044 
L 210.9 384.48 
" clip-path="url(#p4eebfed31a)" style="fill: none; stroke: #2ca02c; stroke-width: 1.5"/>
    <path d="M 214.62 384.48 
L 214.62 377.084241 
L 218.34 377.084241 
L 218.34 384.48 
" clip-path="url(#p4eebfed31a)" style="fill: none; stroke: #2ca02c; stroke-width: 1.5"/>
    <path d="M 209.04 375.114044 
L 209.04 369.101415 
L 216.48 369.101415 
L 216.48 377.084241 
" clip-path="url(#p4eebfed31a)" style="fill: none; stroke: #2ca02c; stroke-width: 1.5"/>
    <path d="M 222.06 384.48 
L 222.06 379.848299 
L 225.78 379.848299 
L 225.78 384.48 
" clip-path="url(#p4eebfed31a)" style="fill: none; stroke: #2ca02c; stroke-width: 1.5"/>
    <path d="M 223.92 379.848299 
L 223.92 377.56261 
L 229.5 377.56261 
L 229.5 384.48 
" clip-path="url(#p4eebfed31a)" style="fill: none; stroke: #2ca02c; stroke-width: 1.5"/>
    <path d="M 226.71 377.56261 
L 226.71 374.196874 
L 233.22 374.196874 
L 233.22 384.48 
" clip-path="url(#p4eebfed31a)" style="fill: none; stroke: #2ca02c; stroke-width: 1.5"/>
    <path d="M 229.965 374.196874 
L 229.965 370.658081 
L 236.94 370.658081 
L 236.94 384.48 
" clip-path="url(#p4eebfed31a)" style="fill: none; stroke: #2ca02c; stroke-width: 1.5"/>
    <path d="M 212.76 369.101415 
L 212.76 367.313419 
L 233.4525 367.313419 
L 233.4525 370.658081 
" clip-path="url(#p4eebfed31a)" style="fill: none; stroke: #2ca02c; stroke-width: 1.5"/>
    <path d="M 240.66 384.48 
L 240.66 371.762222 
L 244.38 371.762222 
L 244.38 384.48 
" clip-path="url(#p4eebfed31a)" style="fill: none; stroke: #2ca02c; stroke-width: 1.5"/>
    <path d="M 248.1 384.48 
L 248.1 372.024071 
L 251.82 372.024071 
L 251.82 384.48 
" clip-path="url(#p4eebfed31a)" style="fill: none; stroke: #2ca02c; stroke-width: 1.5"/>
    <path d="M 249.96 372.024071 
L 249.96 359.42177 
L 255.54 359.42177 
L 255.54 384.48 
" clip-path="url(#p4eebfed31a)" style="fill: none; stroke: #2ca02c; stroke-width: 1.5"/>
    <path d="M 242.52 371.762222 
L 242.52 352.537839 
L 252.75 352.537839 
L 252.75 359.42177 
" clip-path="url(#p4eebfed31a)" style="fill: none; stroke: #2ca02c; stroke-width: 1.5"/>
    <path d="M 262.98 384.48 
L 262.98 373.579987 
L 266.7 373.579987 
L 266.7 384.48 
" clip-path="url(#p4eebfed31a)" style="fill: none; stroke: #2ca02c; stroke-width: 1.5"/>
    <path d="M 259.26 384.48 
L 259.26 370.041446 
L 264.84 370.041446 
L 264.84 373.579987 
" clip-path="url(#p4eebfed31a)" style="fill: none; stroke: #2ca02c; stroke-width: 1.5"/>
    <path d="M 270.42 384.48 
L 270.42 371.753599 
L 274.14 371.753599 
L 274.14 384.48 
" clip-path="url(#p4eebfed31a)" style="fill: none; stroke: #2ca02c; stroke-width: 1.5"/>
    <path d="M 262.05 370.041446 
L 262.05 362.070202 
L 272.28 362.070202 
L 272.28 371.753599 
" clip-path="url(#p4eebfed31a)" style="fill: none; stroke: #2ca02c; stroke-width: 1.5"/>
    <path d="M 247.635 352.537839 
L 247.635 344.503074 
L 267.165 344.503074 
L 267.165 362.070202 
" clip-path="url(#p4eebfed31a)" style="fill: none; stroke: #2ca02c; stroke-width: 1.5"/>
    <path d="M 223.10625 367.313419 
L 223.10625 330.221068 
L 257.4 330.221068 
L 257.4 344.503074 
" clip-path="url(#p4eebfed31a)" style="fill: none; stroke: #2ca02c; stroke-width: 1.5"/>
    <path d="M 182.65125 328.892824 
L 182.65125 305.153261 
L 240.253125 305.153261 
L 240.253125 330.221068 
" clip-path="url(#p4eebfed31a)" style="fill: none; stroke: #2ca02c; stroke-width: 1.5"/>
   </g>
   <g id="LineCollection_3">
    <path d="M 277.86 384.48 
L 277.86 373.844165 
L 281.58 373.844165 
L 281.58 384.48 
" clip-path="url(#p4eebfed31a)" style="fill: none; stroke: #d62728; stroke-width: 1.5"/>
    <path d="M 279.72 373.844165 
L 279.72 368.974738 
L 285.3 368.974738 
L 285.3 384.48 
" clip-path="url(#p4eebfed31a)" style="fill: none; stroke: #d62728; stroke-width: 1.5"/>
    <path d="M 282.51 368.974738 
L 282.51 363.324284 
L 289.02 363.324284 
L 289.02 384.48 
" clip-path="url(#p4eebfed31a)" style="fill: none; stroke: #d62728; stroke-width: 1.5"/>
    <path d="M 296.46 384.48 
L 296.46 375.659419 
L 300.18 375.659419 
L 300.18 384.48 
" clip-path="url(#p4eebfed31a)" style="fill: none; stroke: #d62728; stroke-width: 1.5"/>
    <path d="M 292.74 384.48 
L 292.74 373.267032 
L 298.32 373.267032 
L 298.32 375.659419 
" clip-path="url(#p4eebfed31a)" style="fill: none; stroke: #d62728; stroke-width: 1.5"/>
    <path d="M 285.765 363.324284 
L 285.765 357.043835 
L 295.53 357.043835 
L 295.53 373.267032 
" clip-path="url(#p4eebfed31a)" style="fill: none; stroke: #d62728; stroke-width: 1.5"/>
    <path d="M 311.34 384.48 
L 311.34 376.88405 
L 315.06 376.88405 
L 315.06 384.48 
" clip-path="url(#p4eebfed31a)" style="fill: none; stroke: #d62728; stroke-width: 1.5"/>
    <path d="M 307.62 384.48 
L 307.62 375.29073 
L 313.2 375.29073 
L 313.2 376.88405 
" clip-path="url(#p4eebfed31a)" style="fill: none; stroke: #d62728; stroke-width: 1.5"/>
    <path d="M 303.9 384.48 
L 303.9 366.692592 
L 310.41 366.692592 
L 310.41 375.29073 
" clip-path="url(#p4eebfed31a)" style="fill: none; stroke: #d62728; stroke-width: 1.5"/>
    <path d="M 322.5 384.48 
L 322.5 376.756909 
L 326.22 376.756909 
L 326.22 384.48 
" clip-path="url(#p4eebfed31a)" style="fill: none; stroke: #d62728; stroke-width: 1.5"/>
    <path d="M 318.78 384.48 
L 318.78 368.912525 
L 324.36 368.912525 
L 324.36 376.756909 
" clip-path="url(#p4eebfed31a)" style="fill: none; stroke: #d62728; stroke-width: 1.5"/>
    <path d="M 307.155 366.692592 
L 307.155 363.459686 
L 321.57 363.459686 
L 321.57 368.912525 
" clip-path="url(#p4eebfed31a)" style="fill: none; stroke: #d62728; stroke-width: 1.5"/>
    <path d="M 290.6475 357.043835 
L 290.6475 337.827402 
L 314.3625 337.827402 
L 314.3625 363.459686 
" clip-path="url(#p4eebfed31a)" style="fill: none; stroke: #d62728; stroke-width: 1.5"/>
    <path d="M 337.38 384.48 
L 337.38 378.299668 
L 341.1 378.299668 
L 341.1 384.48 
" clip-path="url(#p4eebfed31a)" style="fill: none; stroke: #d62728; stroke-width: 1.5"/>
    <path d="M 333.66 384.48 
L 333.66 373.018836 
L 339.24 373.018836 
L 339.24 378.299668 
" clip-path="url(#p4eebfed31a)" style="fill: none; stroke: #d62728; stroke-width: 1.5"/>
    <path d="M 336.45 373.018836 
L 336.45 369.026043 
L 344.82 369.026043 
L 344.82 384.48 
" clip-path="url(#p4eebfed31a)" style="fill: none; stroke: #d62728; stroke-width: 1.5"/>
    <path d="M 329.94 384.48 
L 329.94 365.319563 
L 340.635 365.319563 
L 340.635 369.026043 
" clip-path="url(#p4eebfed31a)" style="fill: none; stroke: #d62728; stroke-width: 1.5"/>
    <path d="M 348.54 384.48 
L 348.54 371.35194 
L 352.26 371.35194 
L 352.26 384.48 
" clip-path="url(#p4eebfed31a)" style="fill: none; stroke: #d62728; stroke-width: 1.5"/>
    <path d="M 350.4 371.35194 
L 350.4 359.914306 
L 355.98 359.914306 
L 355.98 384.48 
" clip-path="url(#p4eebfed31a)" style="fill: none; stroke: #d62728; stroke-width: 1.5"/>
    <path d="M 335.2875 365.319563 
L 335.2875 352.352352 
L 353.19 352.352352 
L 353.19 359.914306 
" clip-path="url(#p4eebfed31a)" style="fill: none; stroke: #d62728; stroke-width: 1.5"/>
    <path d="M 302.505 337.827402 
L 302.505 324.788553 
L 344.23875 324.788553 
L 344.23875 352.352352 
" clip-path="url(#p4eebfed31a)" style="fill: none; stroke: #d62728; stroke-width: 1.5"/>
    <path d="M 359.7 384.48 
L 359.7 374.553392 
L 363.42 374.553392 
L 363.42 384.48 
" clip-path="url(#p4eebfed31a)" style="fill: none; stroke: #d62728; stroke-width: 1.5"/>
    <path d="M 361.56 374.553392 
L 361.56 347.320868 
L 367.14 347.320868 
L 367.14 384.48 
" clip-path="url(#p4eebfed31a)" style="fill: none; stroke: #d62728; stroke-width: 1.5"/>
    <path d="M 323.371875 324.788553 
L 323.371875 308.822733 
L 364.35 308.822733 
L 364.35 347.320868 
" clip-path="url(#p4eebfed31a)" style="fill: none; stroke: #d62728; stroke-width: 1.5"/>
   </g>
   <g id="LineCollection_4">
    <path d="M 378.3 384.48 
L 378.3 377.774166 
L 382.02 377.774166 
L 382.02 384.48 
" clip-path="url(#p4eebfed31a)" style="fill: none; stroke: #9467bd; stroke-width: 1.5"/>
    <path d="M 380.16 377.774166 
L 380.16 373.201181 
L 385.74 373.201181 
L 385.74 384.48 
" clip-path="url(#p4eebfed31a)" style="fill: none; stroke: #9467bd; stroke-width: 1.5"/>
    <path d="M 374.58 384.48 
L 374.58 372.518436 
L 382.95 372.518436 
L 382.95 373.201181 
" clip-path="url(#p4eebfed31a)" style="fill: none; stroke: #9467bd; stroke-width: 1.5"/>
    <path d="M 370.86 384.48 
L 370.86 364.756475 
L 378.765 364.756475 
L 378.765 372.518436 
" clip-path="url(#p4eebfed31a)" style="fill: none; stroke: #9467bd; stroke-width: 1.5"/>
    <path d="M 393.18 384.48 
L 393.18 372.652867 
L 396.9 372.652867 
L 396.9 384.48 
" clip-path="url(#p4eebfed31a)" style="fill: none; stroke: #9467bd; stroke-width: 1.5"/>
    <path d="M 389.46 384.48 
L 389.46 370.367528 
L 395.04 370.367528 
L 395.04 372.652867 
" clip-path="url(#p4eebfed31a)" style="fill: none; stroke: #9467bd; stroke-width: 1.5"/>
    <path d="M 392.25 370.367528 
L 392.25 366.999963 
L 400.62 366.999963 
L 400.62 384.48 
" clip-path="url(#p4eebfed31a)" style="fill: none; stroke: #9467bd; stroke-width: 1.5"/>
    <path d="M 374.8125 364.756475 
L 374.8125 351.911619 
L 396.435 351.911619 
L 396.435 366.999963 
" clip-path="url(#p4eebfed31a)" style="fill: none; stroke: #9467bd; stroke-width: 1.5"/>
    <path d="M 408.06 384.48 
L 408.06 373.911185 
L 411.78 373.911185 
L 411.78 384.48 
" clip-path="url(#p4eebfed31a)" style="fill: none; stroke: #9467bd; stroke-width: 1.5"/>
    <path d="M 409.92 373.911185 
L 409.92 367.916542 
L 415.5 367.916542 
L 415.5 384.48 
" clip-path="url(#p4eebfed31a)" style="fill: none; stroke: #9467bd; stroke-width: 1.5"/>
    <path d="M 404.34 384.48 
L 404.34 365.528144 
L 412.71 365.528144 
L 412.71 367.916542 
" clip-path="url(#p4eebfed31a)" style="fill: none; stroke: #9467bd; stroke-width: 1.5"/>
    <path d="M 422.94 384.48 
L 422.94 375.38582 
L 426.66 375.38582 
L 426.66 384.48 
" clip-path="url(#p4eebfed31a)" style="fill: none; stroke: #9467bd; stroke-width: 1.5"/>
    <path d="M 419.22 384.48 
L 419.22 366.721665 
L 424.8 366.721665 
L 424.8 375.38582 
" clip-path="url(#p4eebfed31a)" style="fill: none; stroke: #9467bd; stroke-width: 1.5"/>
    <path d="M 430.38 384.48 
L 430.38 373.346275 
L 434.1 373.346275 
L 434.1 384.48 
" clip-path="url(#p4eebfed31a)" style="fill: none; stroke: #9467bd; stroke-width: 1.5"/>
    <path d="M 422.01 366.721665 
L 422.01 361.580565 
L 432.24 361.580565 
L 432.24 373.346275 
" clip-path="url(#p4eebfed31a)" style="fill: none; stroke: #9467bd; stroke-width: 1.5"/>
    <path d="M 408.525 365.528144 
L 408.525 354.319454 
L 427.125 354.319454 
L 427.125 361.580565 
" clip-path="url(#p4eebfed31a)" style="fill: none; stroke: #9467bd; stroke-width: 1.5"/>
    <path d="M 437.82 384.48 
L 437.82 368.55149 
L 441.54 368.55149 
L 441.54 384.48 
" clip-path="url(#p4eebfed31a)" style="fill: none; stroke: #9467bd; stroke-width: 1.5"/>
    <path d="M 445.26 384.48 
L 445.26 376.028571 
L 448.98 376.028571 
L 448.98 384.48 
" clip-path="url(#p4eebfed31a)" style="fill: none; stroke: #9467bd; stroke-width: 1.5"/>
    <path d="M 447.12 376.028571 
L 447.12 372.988079 
L 452.7 372.988079 
L 452.7 384.48 
" clip-path="url(#p4eebfed31a)" style="fill: none; stroke: #9467bd; stroke-width: 1.5"/>
    <path d="M 439.68 368.55149 
L 439.68 363.536167 
L 449.91 363.536167 
L 449.91 372.988079 
" clip-path="url(#p4eebfed31a)" style="fill: none; stroke: #9467bd; stroke-width: 1.5"/>
    <path d="M 456.42 384.48 
L 456.42 367.187912 
L 460.14 367.187912 
L 460.14 384.48 
" clip-path="url(#p4eebfed31a)" style="fill: none; stroke: #9467bd; stroke-width: 1.5"/>
    <path d="M 444.795 363.536167 
L 444.795 358.158439 
L 458.28 358.158439 
L 458.28 367.187912 
" clip-path="url(#p4eebfed31a)" style="fill: none; stroke: #9467bd; stroke-width: 1.5"/>
    <path d="M 417.825 354.319454 
L 417.825 336.655152 
L 451.5375 336.655152 
L 451.5375 358.158439 
" clip-path="url(#p4eebfed31a)" style="fill: none; stroke: #9467bd; stroke-width: 1.5"/>
    <path d="M 385.62375 351.911619 
L 385.62375 303.234622 
L 434.68125 303.234622 
L 434.68125 336.655152 
" clip-path="url(#p4eebfed31a)" style="fill: none; stroke: #9467bd; stroke-width: 1.5"/>
   </g>
   <g id="LineCollection_5">
    <path d="M 467.58 384.48 
L 467.58 376.62991 
L 471.3 376.62991 
L 471.3 384.48 
" clip-path="url(#p4eebfed31a)" style="fill: none; stroke: #8c564b; stroke-width: 1.5"/>
    <path d="M 469.44 376.62991 
L 469.44 374.877069 
L 475.02 374.877069 
L 475.02 384.48 
" clip-path="url(#p4eebfed31a)" style="fill: none; stroke: #8c564b; stroke-width: 1.5"/>
    <path d="M 463.86 384.48 
L 463.86 373.955805 
L 472.23 373.955805 
L 472.23 374.877069 
" clip-path="url(#p4eebfed31a)" style="fill: none; stroke: #8c564b; stroke-width: 1.5"/>
    <path d="M 468.045 373.955805 
L 468.045 370.463712 
L 478.74 370.463712 
L 478.74 384.48 
" clip-path="url(#p4eebfed31a)" style="fill: none; stroke: #8c564b; stroke-width: 1.5"/>
    <path d="M 486.18 384.48 
L 486.18 378.839546 
L 489.9 378.839546 
L 489.9 384.48 
" clip-path="url(#p4eebfed31a)" style="fill: none; stroke: #8c564b; stroke-width: 1.5"/>
    <path d="M 482.46 384.48 
L 482.46 377.741637 
L 488.04 377.741637 
L 488.04 378.839546 
" clip-path="url(#p4eebfed31a)" style="fill: none; stroke: #8c564b; stroke-width: 1.5"/>
    <path d="M 493.62 384.48 
L 493.62 379.187847 
L 497.34 379.187847 
L 497.34 384.48 
" clip-path="url(#p4eebfed31a)" style="fill: none; stroke: #8c564b; stroke-width: 1.5"/>
    <path d="M 495.48 379.187847 
L 495.48 376.795663 
L 501.06 376.795663 
L 501.06 384.48 
" clip-path="url(#p4eebfed31a)" style="fill: none; stroke: #8c564b; stroke-width: 1.5"/>
    <path d="M 485.25 377.741637 
L 485.25 373.52533 
L 498.27 373.52533 
L 498.27 376.795663 
" clip-path="url(#p4eebfed31a)" style="fill: none; stroke: #8c564b; stroke-width: 1.5"/>
    <path d="M 512.22 384.48 
L 512.22 378.806875 
L 515.94 378.806875 
L 515.94 384.48 
" clip-path="url(#p4eebfed31a)" style="fill: none; stroke: #8c564b; stroke-width: 1.5"/>
    <path d="M 508.5 384.48 
L 508.5 378.73876 
L 514.08 378.73876 
L 514.08 378.806875 
" clip-path="url(#p4eebfed31a)" style="fill: none; stroke: #8c564b; stroke-width: 1.5"/>
    <path d="M 504.78 384.48 
L 504.78 372.779524 
L 511.29 372.779524 
L 511.29 378.73876 
" clip-path="url(#p4eebfed31a)" style="fill: none; stroke: #8c564b; stroke-width: 1.5"/>
    <path d="M 519.66 384.48 
L 519.66 376.440644 
L 523.38 376.440644 
L 523.38 384.48 
" clip-path="url(#p4eebfed31a)" style="fill: none; stroke: #8c564b; stroke-width: 1.5"/>
    <path d="M 508.035 372.779524 
L 508.035 371.089607 
L 521.52 371.089607 
L 521.52 376.440644 
" clip-path="url(#p4eebfed31a)" style="fill: none; stroke: #8c564b; stroke-width: 1.5"/>
    <path d="M 491.76 373.52533 
L 491.76 369.084196 
L 514.7775 369.084196 
L 514.7775 371.089607 
" clip-path="url(#p4eebfed31a)" style="fill: none; stroke: #8c564b; stroke-width: 1.5"/>
    <path d="M 534.54 384.48 
L 534.54 379.854368 
L 538.26 379.854368 
L 538.26 384.48 
" clip-path="url(#p4eebfed31a)" style="fill: none; stroke: #8c564b; stroke-width: 1.5"/>
    <path d="M 530.82 384.48 
L 530.82 376.733415 
L 536.4 376.733415 
L 536.4 379.854368 
" clip-path="url(#p4eebfed31a)" style="fill: none; stroke: #8c564b; stroke-width: 1.5"/>
    <path d="M 541.98 384.48 
L 541.98 379.979511 
L 545.7 379.979511 
L 545.7 384.48 
" clip-path="url(#p4eebfed31a)" style="fill: none; stroke: #8c564b; stroke-width: 1.5"/>
    <path d="M 533.61 376.733415 
L 533.61 375.215191 
L 543.84 375.215191 
L 543.84 379.979511 
" clip-path="url(#p4eebfed31a)" style="fill: none; stroke: #8c564b; stroke-width: 1.5"/>
    <path d="M 549.42 384.48 
L 549.42 378.532242 
L 553.14 378.532242 
L 553.14 384.48 
" clip-path="url(#p4eebfed31a)" style="fill: none; stroke: #8c564b; stroke-width: 1.5"/>
    <path d="M 538.725 375.215191 
L 538.725 373.699333 
L 551.28 373.699333 
L 551.28 378.532242 
" clip-path="url(#p4eebfed31a)" style="fill: none; stroke: #8c564b; stroke-width: 1.5"/>
    <path d="M 527.1 384.48 
L 527.1 371.848058 
L 545.0025 371.848058 
L 545.0025 373.699333 
" clip-path="url(#p4eebfed31a)" style="fill: none; stroke: #8c564b; stroke-width: 1.5"/>
    <path d="M 503.26875 369.084196 
L 503.26875 359.150734 
L 536.05125 359.150734 
L 536.05125 371.848058 
" clip-path="url(#p4eebfed31a)" style="fill: none; stroke: #8c564b; stroke-width: 1.5"/>
    <path d="M 473.3925 370.463712 
L 473.3925 345.381297 
L 519.66 345.381297 
L 519.66 359.150734 
" clip-path="url(#p4eebfed31a)" style="fill: none; stroke: #8c564b; stroke-width: 1.5"/>
   </g>
   <g id="LineCollection_6">
    <path d="M 556.86 384.48 
L 556.86 370.658802 
L 560.58 370.658802 
L 560.58 384.48 
" clip-path="url(#p4eebfed31a)" style="fill: none; stroke: #e377c2; stroke-width: 1.5"/>
    <path d="M 568.02 384.48 
L 568.02 373.370793 
L 571.74 373.370793 
L 571.74 384.48 
" clip-path="url(#p4eebfed31a)" style="fill: none; stroke: #e377c2; stroke-width: 1.5"/>
    <path d="M 569.88 373.370793 
L 569.88 372.452736 
L 575.46 372.452736 
L 575.46 384.48 
" clip-path="url(#p4eebfed31a)" style="fill: none; stroke: #e377c2; stroke-width: 1.5"/>
    <path d="M 579.18 384.48 
L 579.18 377.695264 
L 582.9 377.695264 
L 582.9 384.48 
" clip-path="url(#p4eebfed31a)" style="fill: none; stroke: #e377c2; stroke-width: 1.5"/>
    <path d="M 581.04 377.695264 
L 581.04 372.760537 
L 586.62 372.760537 
L 586.62 384.48 
" clip-path="url(#p4eebfed31a)" style="fill: none; stroke: #e377c2; stroke-width: 1.5"/>
    <path d="M 572.67 372.452736 
L 572.67 369.3925 
L 583.83 369.3925 
L 583.83 372.760537 
" clip-path="url(#p4eebfed31a)" style="fill: none; stroke: #e377c2; stroke-width: 1.5"/>
    <path d="M 564.3 384.48 
L 564.3 367.558024 
L 578.25 367.558024 
L 578.25 369.3925 
" clip-path="url(#p4eebfed31a)" style="fill: none; stroke: #e377c2; stroke-width: 1.5"/>
    <path d="M 558.72 370.658802 
L 558.72 348.642413 
L 571.275 348.642413 
L 571.275 367.558024 
" clip-path="url(#p4eebfed31a)" style="fill: none; stroke: #e377c2; stroke-width: 1.5"/>
    <path d="M 590.34 384.48 
L 590.34 362.762762 
L 594.06 362.762762 
L 594.06 384.48 
" clip-path="url(#p4eebfed31a)" style="fill: none; stroke: #e377c2; stroke-width: 1.5"/>
    <path d="M 597.78 384.48 
L 597.78 371.559604 
L 601.5 371.559604 
L 601.5 384.48 
" clip-path="url(#p4eebfed31a)" style="fill: none; stroke: #e377c2; stroke-width: 1.5"/>
    <path d="M 605.22 384.48 
L 605.22 377.190246 
L 608.94 377.190246 
L 608.94 384.48 
" clip-path="url(#p4eebfed31a)" style="fill: none; stroke: #e377c2; stroke-width: 1.5"/>
    <path d="M 599.64 371.559604 
L 599.64 368.454635 
L 607.08 368.454635 
L 607.08 377.190246 
" clip-path="url(#p4eebfed31a)" style="fill: none; stroke: #e377c2; stroke-width: 1.5"/>
    <path d="M 616.38 384.48 
L 616.38 378.42046 
L 620.1 378.42046 
L 620.1 384.48 
" clip-path="url(#p4eebfed31a)" style="fill: none; stroke: #e377c2; stroke-width: 1.5"/>
    <path d="M 612.66 384.48 
L 612.66 375.449956 
L 618.24 375.449956 
L 618.24 378.42046 
" clip-path="url(#p4eebfed31a)" style="fill: none; stroke: #e377c2; stroke-width: 1.5"/>
    <path d="M 615.45 375.449956 
L 615.45 371.558093 
L 623.82 371.558093 
L 623.82 384.48 
" clip-path="url(#p4eebfed31a)" style="fill: none; stroke: #e377c2; stroke-width: 1.5"/>
    <path d="M 603.36 368.454635 
L 603.36 363.80591 
L 619.635 363.80591 
L 619.635 371.558093 
" clip-path="url(#p4eebfed31a)" style="fill: none; stroke: #e377c2; stroke-width: 1.5"/>
    <path d="M 627.54 384.48 
L 627.54 375.557476 
L 631.26 375.557476 
L 631.26 384.48 
" clip-path="url(#p4eebfed31a)" style="fill: none; stroke: #e377c2; stroke-width: 1.5"/>
    <path d="M 611.4975 363.80591 
L 611.4975 363.081111 
L 629.4 363.081111 
L 629.4 375.557476 
" clip-path="url(#p4eebfed31a)" style="fill: none; stroke: #e377c2; stroke-width: 1.5"/>
    <path d="M 592.2 362.762762 
L 592.2 353.900786 
L 620.44875 353.900786 
L 620.44875 363.081111 
" clip-path="url(#p4eebfed31a)" style="fill: none; stroke: #e377c2; stroke-width: 1.5"/>
    <path d="M 638.7 384.48 
L 638.7 373.794868 
L 642.42 373.794868 
L 642.42 384.48 
" clip-path="url(#p4eebfed31a)" style="fill: none; stroke: #e377c2; stroke-width: 1.5"/>
    <path d="M 634.98 384.48 
L 634.98 372.845067 
L 640.56 372.845067 
L 640.56 373.794868 
" clip-path="url(#p4eebfed31a)" style="fill: none; stroke: #e377c2; stroke-width: 1.5"/>
    <path d="M 637.77 372.845067 
L 637.77 366.288958 
L 646.14 366.288958 
L 646.14 384.48 
" clip-path="url(#p4eebfed31a)" style="fill: none; stroke: #e377c2; stroke-width: 1.5"/>
    <path d="M 606.324375 353.900786 
L 606.324375 350.80092 
L 641.955 350.80092 
L 641.955 366.288958 
" clip-path="url(#p4eebfed31a)" style="fill: none; stroke: #e377c2; stroke-width: 1.5"/>
    <path d="M 564.9975 348.642413 
L 564.9975 318.882902 
L 624.139688 318.882902 
L 624.139688 350.80092 
" clip-path="url(#p4eebfed31a)" style="fill: none; stroke: #e377c2; stroke-width: 1.5"/>
   </g>
   <g id="LineCollection_7">
    <path d="M 118.074375 337.190003 
L 118.074375 257.351248 
L 211.452187 257.351248 
L 211.452187 305.153261 
" clip-path="url(#p4eebfed31a)" style="fill: none; stroke: #1f77b4; stroke-width: 1.5"/>
    <path d="M 164.763281 257.351248 
L 164.763281 231.868798 
L 343.860937 231.868798 
L 343.860937 308.822733 
" clip-path="url(#p4eebfed31a)" style="fill: none; stroke: #1f77b4; stroke-width: 1.5"/>
    <path d="M 496.52625 345.381297 
L 496.52625 238.330943 
L 594.568594 238.330943 
L 594.568594 318.882902 
" clip-path="url(#p4eebfed31a)" style="fill: none; stroke: #1f77b4; stroke-width: 1.5"/>
    <path d="M 410.1525 303.234622 
L 410.1525 180.922707 
L 545.547422 180.922707 
L 545.547422 238.330943 
" clip-path="url(#p4eebfed31a)" style="fill: none; stroke: #1f77b4; stroke-width: 1.5"/>
    <path d="M 254.312109 231.868798 
L 254.312109 67.68 
L 477.849961 67.68 
L 477.849961 180.922707 
" clip-path="url(#p4eebfed31a)" style="fill: none; stroke: #1f77b4; stroke-width: 1.5"/>
   </g>
   <g id="patch_3">
    <path d="M 90 384.48 
L 90 51.84 
" style="fill: none; stroke: #000000; stroke-width: 0.8; stroke-linejoin: miter; stroke-linecap: square"/>
   </g>
   <g id="patch_4">
    <path d="M 648 384.48 
L 648 51.84 
" style="fill: none; stroke: #000000; stroke-width: 0.8; stroke-linejoin: miter; stroke-linecap: square"/>
   </g>
   <g id="patch_5">
    <path d="M 90 384.48 
L 648 384.48 
" style="fill: none; stroke: #000000; stroke-width: 0.8; stroke-linejoin: miter; stroke-linecap: square"/>
   </g>
   <g id="patch_6">
    <path d="M 90 51.84 
L 648 51.84 
" style="fill: none; stroke: #000000; stroke-width: 0.8; stroke-linejoin: miter; stroke-linecap: square"/>
   </g>
   <g id="text_9">
    <!-- Hierarchical Clustering Dendrogram (method=ward, metric=euclidean) -->
    <g transform="translate(154.32 45.84) scale(0.12 -0.12)">
     <defs>
      <path id="DejaVuSans-48" d="M 628 4666 
L 1259 4666 
L 1259 2753 
L 3553 2753 
L 3553 4666 
L 4184 4666 
L 4184 0 
L 3553 0 
L 3553 2222 
L 1259 2222 
L 1259 0 
L 628 0 
L 628 4666 
z
" transform="scale(0.015625)"/>
      <path id="DejaVuSans-72" d="M 2631 2963 
Q 2534 3019 2420 3045 
Q 2306 3072 2169 3072 
Q 1681 3072 1420 2755 
Q 1159 2438 1159 1844 
L 1159 0 
L 581 0 
L 581 3500 
L 1159 3500 
L 1159 2956 
Q 1341 3275 1631 3429 
Q 1922 3584 2338 3584 
Q 2397 3584 2469 3576 
Q 2541 3569 2628 3553 
L 2631 2963 
z
" transform="scale(0.015625)"/>
      <path id="DejaVuSans-68" d="M 3513 2113 
L 3513 0 
L 2938 0 
L 2938 2094 
Q 2938 2591 2744 2837 
Q 2550 3084 2163 3084 
Q 1697 3084 1428 2787 
Q 1159 2491 1159 1978 
L 1159 0 
L 581 0 
L 581 4863 
L 1159 4863 
L 1159 2956 
Q 1366 3272 1645 3428 
Q 1925 3584 2291 3584 
Q 2894 3584 3203 3211 
Q 3513 2838 3513 2113 
z
" transform="scale(0.015625)"/>
      <path id="DejaVuSans-43" d="M 4122 4306 
L 4122 3641 
Q 3803 3938 3442 4084 
Q 3081 4231 2675 4231 
Q 1875 4231 1450 3742 
Q 1025 3253 1025 2328 
Q 1025 1406 1450 917 
Q 1875 428 2675 428 
Q 3081 428 3442 575 
Q 3803 722 4122 1019 
L 4122 359 
Q 3791 134 3420 21 
Q 3050 -91 2638 -91 
Q 1578 -91 968 557 
Q 359 1206 359 2328 
Q 359 3453 968 4101 
Q 1578 4750 2638 4750 
Q 3056 4750 3426 4639 
Q 3797 4528 4122 4306 
z
" transform="scale(0.015625)"/>
      <path id="DejaVuSans-75" d="M 544 1381 
L 544 3500 
L 1119 3500 
L 1119 1403 
Q 1119 906 1312 657 
Q 1506 409 1894 409 
Q 2359 409 2629 706 
Q 2900 1003 2900 1516 
L 2900 3500 
L 3475 3500 
L 3475 0 
L 2900 0 
L 2900 538 
Q 2691 219 2414 64 
Q 2138 -91 1772 -91 
Q 1169 -91 856 284 
Q 544 659 544 1381 
z
M 1991 3584 
L 1991 3584 
z
" transform="scale(0.015625)"/>
      <path id="DejaVuSans-67" d="M 2906 1791 
Q 2906 2416 2648 2759 
Q 2391 3103 1925 3103 
Q 1463 3103 1205 2759 
Q 947 2416 947 1791 
Q 947 1169 1205 825 
Q 1463 481 1925 481 
Q 2391 481 2648 825 
Q 2906 1169 2906 1791 
z
M 3481 434 
Q 3481 -459 3084 -895 
Q 2688 -1331 1869 -1331 
Q 1566 -1331 1297 -1286 
Q 1028 -1241 775 -1147 
L 775 -588 
Q 1028 -725 1275 -790 
Q 1522 -856 1778 -856 
Q 2344 -856 2625 -561 
Q 2906 -266 2906 331 
L 2906 616 
Q 2728 306 2450 153 
Q 2172 0 1784 0 
Q 1141 0 747 490 
Q 353 981 353 1791 
Q 353 2603 747 3093 
Q 1141 3584 1784 3584 
Q 2172 3584 2450 3431 
Q 2728 3278 2906 2969 
L 2906 3500 
L 3481 3500 
L 3481 434 
z
" transform="scale(0.015625)"/>
      <path id="DejaVuSans-6f" d="M 1959 3097 
Q 1497 3097 1228 2736 
Q 959 2375 959 1747 
Q 959 1119 1226 758 
Q 1494 397 1959 397 
Q 2419 397 2687 759 
Q 2956 1122 2956 1747 
Q 2956 2369 2687 2733 
Q 2419 3097 1959 3097 
z
M 1959 3584 
Q 2709 3584 3137 3096 
Q 3566 2609 3566 1747 
Q 3566 888 3137 398 
Q 2709 -91 1959 -91 
Q 1206 -91 779 398 
Q 353 888 353 1747 
Q 353 2609 779 3096 
Q 1206 3584 1959 3584 
z
" transform="scale(0.015625)"/>
      <path id="DejaVuSans-28" d="M 1984 4856 
Q 1566 4138 1362 3434 
Q 1159 2731 1159 2009 
Q 1159 1288 1364 580 
Q 1569 -128 1984 -844 
L 1484 -844 
Q 1016 -109 783 600 
Q 550 1309 550 2009 
Q 550 2706 781 3412 
Q 1013 4119 1484 4856 
L 1984 4856 
z
" transform="scale(0.015625)"/>
      <path id="DejaVuSans-3d" d="M 678 2906 
L 4684 2906 
L 4684 2381 
L 678 2381 
L 678 2906 
z
M 678 1631 
L 4684 1631 
L 4684 1100 
L 678 1100 
L 678 1631 
z
" transform="scale(0.015625)"/>
      <path id="DejaVuSans-77" d="M 269 3500 
L 844 3500 
L 1563 769 
L 2278 3500 
L 2956 3500 
L 3675 769 
L 4391 3500 
L 4966 3500 
L 4050 0 
L 3372 0 
L 2619 2869 
L 1863 0 
L 1184 0 
L 269 3500 
z
" transform="scale(0.015625)"/>
      <path id="DejaVuSans-2c" d="M 750 794 
L 1409 794 
L 1409 256 
L 897 -744 
L 494 -744 
L 750 256 
L 750 794 
z
" transform="scale(0.015625)"/>
      <path id="DejaVuSans-29" d="M 513 4856 
L 1013 4856 
Q 1481 4119 1714 3412 
Q 1947 2706 1947 2009 
Q 1947 1309 1714 600 
Q 1481 -109 1013 -844 
L 513 -844 
Q 928 -128 1133 580 
Q 1338 1288 1338 2009 
Q 1338 2731 1133 3434 
Q 928 4138 513 4856 
z
" transform="scale(0.015625)"/>
     </defs>
     <use xlink:href="#DejaVuSans-48"/>
     <use xlink:href="#DejaVuSans-69" transform="translate(75.195312 0)"/>
     <use xlink:href="#DejaVuSans-65" transform="translate(102.978516 0)"/>
     <use xlink:href="#DejaVuSans-72" transform="translate(164.501953 0)"/>
     <use xlink:href="#DejaVuSans-61" transform="translate(205.615234 0)"/>
     <use xlink:href="#DejaVuSans-72" transform="translate(266.894531 0)"/>
     <use xlink:href="#DejaVuSans-63" transform="translate(305.757812 0)"/>
     <use xlink:href="#DejaVuSans-68" transform="translate(360.738281 0)"/>
     <use xlink:href="#DejaVuSans-69" transform="translate(424.117188 0)"/>
     <use xlink:href="#DejaVuSans-63" transform="translate(451.900391 0)"/>
     <use xlink:href="#DejaVuSans-61" transform="translate(506.880859 0)"/>
     <use xlink:href="#DejaVuSans-6c" transform="translate(568.160156 0)"/>
     <use xlink:href="#DejaVuSans-20" transform="translate(595.943359 0)"/>
     <use xlink:href="#DejaVuSans-43" transform="translate(627.730469 0)"/>
     <use xlink:href="#DejaVuSans-6c" transform="translate(697.554688 0)"/>
     <use xlink:href="#DejaVuSans-75" transform="translate(725.337891 0)"/>
     <use xlink:href="#DejaVuSans-73" transform="translate(788.716797 0)"/>
     <use xlink:href="#DejaVuSans-74" transform="translate(840.816406 0)"/>
     <use xlink:href="#DejaVuSans-65" transform="translate(880.025391 0)"/>
     <use xlink:href="#DejaVuSans-72" transform="translate(941.548828 0)"/>
     <use xlink:href="#DejaVuSans-69" transform="translate(982.662109 0)"/>
     <use xlink:href="#DejaVuSans-6e" transform="translate(1010.445312 0)"/>
     <use xlink:href="#DejaVuSans-67" transform="translate(1073.824219 0)"/>
     <use xlink:href="#DejaVuSans-20" transform="translate(1137.300781 0)"/>
     <use xlink:href="#DejaVuSans-44" transform="translate(1169.087891 0)"/>
     <use xlink:href="#DejaVuSans-65" transform="translate(1246.089844 0)"/>
     <use xlink:href="#DejaVuSans-6e" transform="translate(1307.613281 0)"/>
     <use xlink:href="#DejaVuSans-64" transform="translate(1370.992188 0)"/>
     <use xlink:href="#DejaVuSans-72" transform="translate(1434.46875 0)"/>
     <use xlink:href="#DejaVuSans-6f" transform="translate(1473.332031 0)"/>
     <use xlink:href="#DejaVuSans-67" transform="translate(1534.513672 0)"/>
     <use xlink:href="#DejaVuSans-72" transform="translate(1597.990234 0)"/>
     <use xlink:href="#DejaVuSans-61" transform="translate(1639.103516 0)"/>
     <use xlink:href="#DejaVuSans-6d" transform="translate(1700.382812 0)"/>
     <use xlink:href="#DejaVuSans-20" transform="translate(1797.794922 0)"/>
     <use xlink:href="#DejaVuSans-28" transform="translate(1829.582031 0)"/>
     <use xlink:href="#DejaVuSans-6d" transform="translate(1868.595703 0)"/>
     <use xlink:href="#DejaVuSans-65" transform="translate(1966.007812 0)"/>
     <use xlink:href="#DejaVuSans-74" transform="translate(2027.53125 0)"/>
     <use xlink:href="#DejaVuSans-68" transform="translate(2066.740234 0)"/>
     <use xlink:href="#DejaVuSans-6f" transform="translate(2130.119141 0)"/>
     <use xlink:href="#DejaVuSans-64" transform="translate(2191.300781 0)"/>
     <use xlink:href="#DejaVuSans-3d" transform="translate(2254.777344 0)"/>
     <use xlink:href="#DejaVuSans-77" transform="translate(2338.566406 0)"/>
     <use xlink:href="#DejaVuSans-61" transform="translate(2420.353516 0)"/>
     <use xlink:href="#DejaVuSans-72" transform="translate(2481.632812 0)"/>
     <use xlink:href="#DejaVuSans-64" transform="translate(2520.996094 0)"/>
     <use xlink:href="#DejaVuSans-2c" transform="translate(2584.472656 0)"/>
     <use xlink:href="#DejaVuSans-20" transform="translate(2616.259766 0)"/>
     <use xlink:href="#DejaVuSans-6d" transform="translate(2648.046875 0)"/>
     <use xlink:href="#DejaVuSans-65" transform="translate(2745.458984 0)"/>
     <use xlink:href="#DejaVuSans-74" transform="translate(2806.982422 0)"/>
     <use xlink:href="#DejaVuSans-72" transform="translate(2846.191406 0)"/>
     <use xlink:href="#DejaVuSans-69" transform="translate(2887.304688 0)"/>
     <use xlink:href="#DejaVuSans-63" transform="translate(2915.087891 0)"/>
     <use xlink:href="#DejaVuSans-3d" transform="translate(2970.068359 0)"/>
     <use xlink:href="#DejaVuSans-65" transform="translate(3053.857422 0)"/>
     <use xlink:href="#DejaVuSans-75" transform="translate(3115.380859 0)"/>
     <use xlink:href="#DejaVuSans-63" transform="translate(3178.759766 0)"/>
     <use xlink:href="#DejaVuSans-6c" transform="translate(3233.740234 0)"/>
     <use xlink:href="#DejaVuSans-69" transform="translate(3261.523438 0)"/>
     <use xlink:href="#DejaVuSans-64" transform="translate(3289.306641 0)"/>
     <use xlink:href="#DejaVuSans-65" transform="translate(3352.783203 0)"/>
     <use xlink:href="#DejaVuSans-61" transform="translate(3414.306641 0)"/>
     <use xlink:href="#DejaVuSans-6e" transform="translate(3475.585938 0)"/>
     <use xlink:href="#DejaVuSans-29" transform="translate(3538.964844 0)"/>
    </g>
   </g>
  </g>
 </g>
 <defs>
  <clipPath id="p4eebfed31a">
   <rect x="90" y="51.84" width="558" height="332.64"/>
  </clipPath>
 </defs>
</svg>
